<?xml version="1.0" standalone="no"?>
<!DOCTYPE svg PUBLIC "-//W3C//DTD SVG 20010904//EN"
 "http://www.w3.org/TR/2001/REC-SVG-20010904/DTD/svg10.dtd">
<svg version="1.0" xmlns="http://www.w3.org/2000/svg"
 width="310.000000pt" height="310.000000pt" viewBox="0 0 310.000000 310.000000"
 preserveAspectRatio="xMidYMid meet">
<metadata>
Created by potrace 1.11, written by Peter Selinger 2001-2013
</metadata>
<g transform="translate(0.000000,310.000000) scale(0.100000,-0.100000)"
fill="#000000" stroke="none">
<path d="M370 2935 c0 -20 5 -25 25 -25 20 0 25 5 25 25 0 20 -5 25 -25 25
-20 0 -25 -5 -25 -25z"/>
<path d="M523 2934 c-11 -29 2 -49 32 -49 26 0 30 4 33 32 3 30 1 32 -28 31
-18 -1 -34 -7 -37 -14z"/>
<path d="M390 2795 c0 -21 5 -25 30 -25 25 0 30 4 30 25 0 21 -5 25 -30 25
-25 0 -30 -4 -30 -25z"/>
<path d="M545 2760 c-7 -12 2 -30 16 -30 12 0 12 27 0 35 -5 3 -12 1 -16 -5z"/>
<path d="M829 2753 c-6 -6 -9 -31 -7 -55 l3 -43 60 0 60 0 1 52 1 51 -54 4
c-34 2 -58 -2 -64 -9z"/>
<path d="M1502 2654 c-129 -28 -284 -106 -297 -148 -3 -12 -9 -74 -12 -138
l-6 -117 -116 -3 -115 -3 -19 -50 c-46 -123 -48 -154 -54 -726 -6 -590 -3
-654 43 -781 36 -99 90 -184 164 -258 61 -62 179 -142 245 -167 125 -48 261
-67 386 -53 311 35 551 222 644 505 29 87 36 202 33 545 l-3 335 -400 0 -400
0 -7 -180 c-3 -99 -4 -188 -2 -197 5 -16 24 -18 177 -20 l172 -3 3 -150 c4
-213 -25 -288 -135 -347 -76 -41 -153 -54 -226 -39 -76 16 -107 32 -163 83
-35 32 -48 55 -65 108 -19 64 -20 88 -17 626 3 553 3 559 25 600 76 142 268
193 429 114 116 -57 154 -134 154 -313 0 -75 4 -117 12 -125 9 -9 71 -12 220
-12 201 0 208 1 219 21 16 30 1 275 -22 365 -50 199 -187 367 -372 457 -163
80 -341 105 -495 71z"/>
<path d="M969 2532 l-56 -3 -7 -111 c-5 -71 -4 -114 3 -121 10 -10 187 -17
229 -9 22 4 23 6 20 126 l-3 121 -65 0 c-36 0 -90 -1 -121 -3z"/>
<path d="M653 2464 c-4 -11 -8 -44 -8 -74 l0 -55 73 -3 72 -3 0 71 0 70 -49 0
c-27 0 -56 3 -65 6 -10 4 -19 -1 -23 -12z"/>
</g>
</svg>
